<svg xmlns="http://www.w3.org/2000/svg" width="900" height="260" viewBox="0 0 900 260" font-family="Segoe UI,Ubuntu,DejaVu Sans,sans-serif" role="img" aria-label="Contribution activity for hykelauncher: 340 contributions over the last 53 weeks, busiest week 52"><style>.trace{stroke-dasharray:1644.8;animation:draw 8s linear infinite}.head{animation:ride 8s linear infinite;offset-path:path("M44.0,226.0 L60.0,226.0 L76.1,226.0 L92.1,226.0 L108.2,226.0 L124.2,219.5 L140.2,226.0 L156.3,226.0 L172.3,226.0 L188.3,226.0 L204.4,226.0 L220.4,226.0 L236.5,226.0 L252.5,226.0 L268.5,226.0 L284.6,226.0 L300.6,226.0 L316.7,226.0 L332.7,209.7 L348.7,226.0 L364.8,226.0 L380.8,226.0 L396.8,212.9 L412.9,219.5 L428.9,226.0 L445.0,163.9 L461.0,206.4 L477.0,69.1 L493.1,56.0 L509.1,186.8 L525.2,203.1 L541.2,173.7 L557.2,167.2 L573.3,203.1 L589.3,222.7 L605.3,226.0 L621.4,219.5 L637.4,203.1 L653.5,216.2 L669.5,209.7 L685.5,101.8 L701.6,193.3 L717.6,167.2 L733.7,226.0 L749.7,226.0 L765.7,199.8 L781.8,219.5 L797.8,216.2 L813.8,209.7 L829.9,127.9 L845.9,196.6 L862.0,226.0 L878.0,222.7");offset-rotate:0deg}.pulse{transform-box:fill-box;transform-origin:center;animation:pulse .95s ease-out infinite}.halo{transform-box:fill-box;transform-origin:center;animation:halo .95s ease-out infinite}.blip{transform-box:fill-box;transform-origin:center;animation-duration:8s;animation-timing-function:ease-out;animation-iteration-count:infinite}.b0{animation-name:blip0}.b1{animation-name:blip1}.b2{animation-name:blip2}.b3{animation-name:blip3}@keyframes draw{0%{stroke-dashoffset:1644.8;opacity:1}62%,88%{stroke-dashoffset:0;opacity:1}99%,100%{stroke-dashoffset:0;opacity:0}}@keyframes ride{0%{offset-distance:0%;opacity:1}62%{offset-distance:100%;opacity:1}66%,100%{offset-distance:100%;opacity:0}}@keyframes pulse{0%,70%,100%{transform:scale(1)}12%{transform:scale(1.45)}30%{transform:scale(.92)}}@keyframes halo{0%{transform:scale(.6);opacity:.55}70%,100%{transform:scale(2.6);opacity:0}}@keyframes blip0{0%,25.12%{transform:scale(.2);opacity:0}25.52%{transform:scale(1);opacity:.85}34.52%,100%{transform:scale(2.6);opacity:0}}@keyframes blip1{0%,24.34%{transform:scale(.2);opacity:0}24.74%{transform:scale(1);opacity:.85}33.74%,100%{transform:scale(2.6);opacity:0}}@keyframes blip2{0%,42.98%{transform:scale(.2);opacity:0}43.38%{transform:scale(1);opacity:.85}52.38%,100%{transform:scale(2.6);opacity:0}}@keyframes blip3{0%,57.06%{transform:scale(.2);opacity:0}57.46%{transform:scale(1);opacity:.85}66.46%,100%{transform:scale(2.6);opacity:0}}</style><defs><linearGradient id="fade" x1="0" y1="0" x2="0" y2="1"><stop offset="0%" stop-color="#0969da" stop-opacity="0.22"/><stop offset="100%" stop-color="#0969da" stop-opacity="0"/></linearGradient><filter id="glow" x="-60%" y="-60%" width="220%" height="220%"><feGaussianBlur stdDeviation="3" result="b"/><feMerge><feMergeNode in="b"/><feMergeNode in="SourceGraphic"/></feMerge></filter></defs><rect width="900" height="260" rx="10" fill="#ffffff"/><text x="44" y="30" fill="#0969da" font-size="17" font-weight="600">Contribution activity</text><text x="878" y="30" fill="#1a7f37" font-size="13" text-anchor="end">340 contributions in the last year · best week 52</text><line x1="44" y1="56.0" x2="878" y2="56.0" stroke="#eaeef2" stroke-width="1"/><line x1="44" y1="98.5" x2="878" y2="98.5" stroke="#eaeef2" stroke-width="1"/><line x1="44" y1="141.0" x2="878" y2="141.0" stroke="#eaeef2" stroke-width="1"/><line x1="44" y1="183.5" x2="878" y2="183.5" stroke="#eaeef2" stroke-width="1"/><line x1="44" y1="226.0" x2="878" y2="226.0" stroke="#eaeef2" stroke-width="1"/><line x1="44.0" y1="56" x2="44.0" y2="226" stroke="#eaeef2" stroke-width="1"/><line x1="92.1" y1="56" x2="92.1" y2="226" stroke="#eaeef2" stroke-width="1"/><line x1="156.3" y1="56" x2="156.3" y2="226" stroke="#eaeef2" stroke-width="1"/><line x1="220.4" y1="56" x2="220.4" y2="226" stroke="#eaeef2" stroke-width="1"/><line x1="300.6" y1="56" x2="300.6" y2="226" stroke="#eaeef2" stroke-width="1"/><line x1="364.8" y1="56" x2="364.8" y2="226" stroke="#eaeef2" stroke-width="1"/><line x1="428.9" y1="56" x2="428.9" y2="226" stroke="#eaeef2" stroke-width="1"/><line x1="493.1" y1="56" x2="493.1" y2="226" stroke="#eaeef2" stroke-width="1"/><line x1="573.3" y1="56" x2="573.3" y2="226" stroke="#eaeef2" stroke-width="1"/><line x1="637.4" y1="56" x2="637.4" y2="226" stroke="#eaeef2" stroke-width="1"/><line x1="717.6" y1="56" x2="717.6" y2="226" stroke="#eaeef2" stroke-width="1"/><line x1="781.8" y1="56" x2="781.8" y2="226" stroke="#eaeef2" stroke-width="1"/><line x1="845.9" y1="56" x2="845.9" y2="226" stroke="#eaeef2" stroke-width="1"/><path d="M44.0,226.0 L60.0,226.0 L76.1,226.0 L92.1,226.0 L108.2,226.0 L124.2,219.5 L140.2,226.0 L156.3,226.0 L172.3,226.0 L188.3,226.0 L204.4,226.0 L220.4,226.0 L236.5,226.0 L252.5,226.0 L268.5,226.0 L284.6,226.0 L300.6,226.0 L316.7,226.0 L332.7,209.7 L348.7,226.0 L364.8,226.0 L380.8,226.0 L396.8,212.9 L412.9,219.5 L428.9,226.0 L445.0,163.9 L461.0,206.4 L477.0,69.1 L493.1,56.0 L509.1,186.8 L525.2,203.1 L541.2,173.7 L557.2,167.2 L573.3,203.1 L589.3,222.7 L605.3,226.0 L621.4,219.5 L637.4,203.1 L653.5,216.2 L669.5,209.7 L685.5,101.8 L701.6,193.3 L717.6,167.2 L733.7,226.0 L749.7,226.0 L765.7,199.8 L781.8,219.5 L797.8,216.2 L813.8,209.7 L829.9,127.9 L845.9,196.6 L862.0,226.0 L878.0,222.7 L878.0,226.0 L44.0,226.0 Z" fill="url(#fade)"/><path d="M44.0,226.0 L60.0,226.0 L76.1,226.0 L92.1,226.0 L108.2,226.0 L124.2,219.5 L140.2,226.0 L156.3,226.0 L172.3,226.0 L188.3,226.0 L204.4,226.0 L220.4,226.0 L236.5,226.0 L252.5,226.0 L268.5,226.0 L284.6,226.0 L300.6,226.0 L316.7,226.0 L332.7,209.7 L348.7,226.0 L364.8,226.0 L380.8,226.0 L396.8,212.9 L412.9,219.5 L428.9,226.0 L445.0,163.9 L461.0,206.4 L477.0,69.1 L493.1,56.0 L509.1,186.8 L525.2,203.1 L541.2,173.7 L557.2,167.2 L573.3,203.1 L589.3,222.7 L605.3,226.0 L621.4,219.5 L637.4,203.1 L653.5,216.2 L669.5,209.7 L685.5,101.8 L701.6,193.3 L717.6,167.2 L733.7,226.0 L749.7,226.0 L765.7,199.8 L781.8,219.5 L797.8,216.2 L813.8,209.7 L829.9,127.9 L845.9,196.6 L862.0,226.0 L878.0,222.7" fill="none" stroke="#d0d7de" stroke-width="2" stroke-linejoin="round" stroke-linecap="round"/><path class="trace" d="M44.0,226.0 L60.0,226.0 L76.1,226.0 L92.1,226.0 L108.2,226.0 L124.2,219.5 L140.2,226.0 L156.3,226.0 L172.3,226.0 L188.3,226.0 L204.4,226.0 L220.4,226.0 L236.5,226.0 L252.5,226.0 L268.5,226.0 L284.6,226.0 L300.6,226.0 L316.7,226.0 L332.7,209.7 L348.7,226.0 L364.8,226.0 L380.8,226.0 L396.8,212.9 L412.9,219.5 L428.9,226.0 L445.0,163.9 L461.0,206.4 L477.0,69.1 L493.1,56.0 L509.1,186.8 L525.2,203.1 L541.2,173.7 L557.2,167.2 L573.3,203.1 L589.3,222.7 L605.3,226.0 L621.4,219.5 L637.4,203.1 L653.5,216.2 L669.5,209.7 L685.5,101.8 L701.6,193.3 L717.6,167.2 L733.7,226.0 L749.7,226.0 L765.7,199.8 L781.8,219.5 L797.8,216.2 L813.8,209.7 L829.9,127.9 L845.9,196.6 L862.0,226.0 L878.0,222.7" fill="none" stroke="#0969da" stroke-width="2.4" stroke-linejoin="round" stroke-linecap="round" filter="url(#glow)"/><circle class="blip b0" cx="493.1" cy="56.0" r="5" fill="none" stroke="#8250df" stroke-width="1.6"/><circle class="blip b1" cx="477.0" cy="69.1" r="5" fill="none" stroke="#8250df" stroke-width="1.6"/><circle class="blip b2" cx="685.5" cy="101.8" r="5" fill="none" stroke="#8250df" stroke-width="1.6"/><circle class="blip b3" cx="829.9" cy="127.9" r="5" fill="none" stroke="#8250df" stroke-width="1.6"/><g class="head"><circle class="halo" r="6" fill="none" stroke="#8250df" stroke-width="1.4"/><circle class="pulse" r="4.5" fill="#8250df" filter="url(#glow)"/></g><text x="44.0" y="248" fill="#6e7781" font-size="11" text-anchor="middle">Aug</text><text x="92.1" y="248" fill="#6e7781" font-size="11" text-anchor="middle">Sep</text><text x="156.3" y="248" fill="#6e7781" font-size="11" text-anchor="middle">Oct</text><text x="220.4" y="248" fill="#6e7781" font-size="11" text-anchor="middle">Nov</text><text x="300.6" y="248" fill="#6e7781" font-size="11" text-anchor="middle">Dec</text><text x="364.8" y="248" fill="#6e7781" font-size="11" text-anchor="middle">Jan</text><text x="428.9" y="248" fill="#6e7781" font-size="11" text-anchor="middle">Feb</text><text x="493.1" y="248" fill="#6e7781" font-size="11" text-anchor="middle">Mar</text><text x="573.3" y="248" fill="#6e7781" font-size="11" text-anchor="middle">Apr</text><text x="637.4" y="248" fill="#6e7781" font-size="11" text-anchor="middle">May</text><text x="717.6" y="248" fill="#6e7781" font-size="11" text-anchor="middle">Jun</text><text x="781.8" y="248" fill="#6e7781" font-size="11" text-anchor="middle">Jul</text><text x="845.9" y="248" fill="#6e7781" font-size="11" text-anchor="middle">Aug</text><text x="36" y="60.0" fill="#6e7781" font-size="11" text-anchor="end">52</text><text x="36" y="230.0" fill="#6e7781" font-size="11" text-anchor="end">0</text></svg>