<svg xmlns="http://www.w3.org/2000/svg" width="900" height="260" viewBox="0 0 900 260" font-family="Segoe UI,Ubuntu,DejaVu Sans,sans-serif" role="img" aria-label="Contribution activity for hykelauncher: 359 contributions over the last 53 weeks, busiest week 52"><style>.trace{stroke-dasharray:1654.3;animation:draw 8s linear infinite}.head{animation:ride 8s linear infinite;offset-path:path("M44.0,226.0 L60.0,226.0 L76.1,226.0 L92.1,226.0 L108.2,226.0 L124.2,226.0 L140.2,226.0 L156.3,226.0 L172.3,226.0 L188.3,226.0 L204.4,226.0 L220.4,226.0 L236.5,226.0 L252.5,226.0 L268.5,226.0 L284.6,226.0 L300.6,216.2 L316.7,219.5 L332.7,226.0 L348.7,163.9 L364.8,206.4 L380.8,69.1 L396.8,56.0 L412.9,186.8 L428.9,203.1 L445.0,177.0 L461.0,167.2 L477.0,203.1 L493.1,222.7 L509.1,226.0 L525.2,219.5 L541.2,203.1 L557.2,216.2 L573.3,209.7 L589.3,101.8 L605.3,196.6 L621.4,167.2 L637.4,226.0 L653.5,226.0 L669.5,209.7 L685.5,219.5 L701.6,209.7 L717.6,209.7 L733.7,127.9 L749.7,196.6 L765.7,226.0 L781.8,209.7 L797.8,209.7 L813.8,193.3 L829.9,190.0 L845.9,226.0 L862.0,226.0 L878.0,226.0");offset-rotate:0deg}.pulse{transform-box:fill-box;transform-origin:center;animation:pulse .95s ease-out infinite}.halo{transform-box:fill-box;transform-origin:center;animation:halo .95s ease-out infinite}.blip{transform-box:fill-box;transform-origin:center;animation-duration:8s;animation-timing-function:ease-out;animation-iteration-count:infinite}.b0{animation-name:blip0}.b1{animation-name:blip1}.b2{animation-name:blip2}.b3{animation-name:blip3}@keyframes draw{0%{stroke-dashoffset:1654.3;opacity:1}62%,88%{stroke-dashoffset:0;opacity:1}99%,100%{stroke-dashoffset:0;opacity:0}}@keyframes ride{0%{offset-distance:0%;opacity:1}62%{offset-distance:100%;opacity:1}66%,100%{offset-distance:100%;opacity:0}}@keyframes pulse{0%,70%,100%{transform:scale(1)}12%{transform:scale(1.45)}30%{transform:scale(.92)}}@keyframes halo{0%{transform:scale(.6);opacity:.55}70%,100%{transform:scale(2.6);opacity:0}}@keyframes blip0{0%,20.65%{transform:scale(.2);opacity:0}21.05%{transform:scale(1);opacity:.85}30.05%,100%{transform:scale(2.6);opacity:0}}@keyframes blip1{0%,19.87%{transform:scale(.2);opacity:0}20.27%{transform:scale(1);opacity:.85}29.27%,100%{transform:scale(2.6);opacity:0}}@keyframes blip2{0%,38.36%{transform:scale(.2);opacity:0}38.76%{transform:scale(1);opacity:.85}47.76%,100%{transform:scale(2.6);opacity:0}}@keyframes blip3{0%,52.09%{transform:scale(.2);opacity:0}52.49%{transform:scale(1);opacity:.85}61.49%,100%{transform:scale(2.6);opacity:0}}</style><defs><linearGradient id="fade" x1="0" y1="0" x2="0" y2="1"><stop offset="0%" stop-color="#0969da" stop-opacity="0.22"/><stop offset="100%" stop-color="#0969da" stop-opacity="0"/></linearGradient><filter id="glow" x="-60%" y="-60%" width="220%" height="220%"><feGaussianBlur stdDeviation="3" result="b"/><feMerge><feMergeNode in="b"/><feMergeNode in="SourceGraphic"/></feMerge></filter></defs><rect width="900" height="260" rx="10" fill="#ffffff"/><text x="44" y="30" fill="#0969da" font-size="17" font-weight="600">Contribution activity</text><text x="878" y="30" fill="#1a7f37" font-size="13" text-anchor="end">359 contributions in the last year · best week 52</text><line x1="44" y1="56.0" x2="878" y2="56.0" stroke="#eaeef2" stroke-width="1"/><line x1="44" y1="98.5" x2="878" y2="98.5" stroke="#eaeef2" stroke-width="1"/><line x1="44" y1="141.0" x2="878" y2="141.0" stroke="#eaeef2" stroke-width="1"/><line x1="44" y1="183.5" x2="878" y2="183.5" stroke="#eaeef2" stroke-width="1"/><line x1="44" y1="226.0" x2="878" y2="226.0" stroke="#eaeef2" stroke-width="1"/><line x1="44.0" y1="56" x2="44.0" y2="226" stroke="#eaeef2" stroke-width="1"/><line x1="60.0" y1="56" x2="60.0" y2="226" stroke="#eaeef2" stroke-width="1"/><line x1="124.2" y1="56" x2="124.2" y2="226" stroke="#eaeef2" stroke-width="1"/><line x1="204.4" y1="56" x2="204.4" y2="226" stroke="#eaeef2" stroke-width="1"/><line x1="268.5" y1="56" x2="268.5" y2="226" stroke="#eaeef2" stroke-width="1"/><line x1="332.7" y1="56" x2="332.7" y2="226" stroke="#eaeef2" stroke-width="1"/><line x1="396.8" y1="56" x2="396.8" y2="226" stroke="#eaeef2" stroke-width="1"/><line x1="477.0" y1="56" x2="477.0" y2="226" stroke="#eaeef2" stroke-width="1"/><line x1="541.2" y1="56" x2="541.2" y2="226" stroke="#eaeef2" stroke-width="1"/><line x1="621.4" y1="56" x2="621.4" y2="226" stroke="#eaeef2" stroke-width="1"/><line x1="685.5" y1="56" x2="685.5" y2="226" stroke="#eaeef2" stroke-width="1"/><line x1="749.7" y1="56" x2="749.7" y2="226" stroke="#eaeef2" stroke-width="1"/><line x1="829.9" y1="56" x2="829.9" y2="226" stroke="#eaeef2" stroke-width="1"/><path d="M44.0,226.0 L60.0,226.0 L76.1,226.0 L92.1,226.0 L108.2,226.0 L124.2,226.0 L140.2,226.0 L156.3,226.0 L172.3,226.0 L188.3,226.0 L204.4,226.0 L220.4,226.0 L236.5,226.0 L252.5,226.0 L268.5,226.0 L284.6,226.0 L300.6,216.2 L316.7,219.5 L332.7,226.0 L348.7,163.9 L364.8,206.4 L380.8,69.1 L396.8,56.0 L412.9,186.8 L428.9,203.1 L445.0,177.0 L461.0,167.2 L477.0,203.1 L493.1,222.7 L509.1,226.0 L525.2,219.5 L541.2,203.1 L557.2,216.2 L573.3,209.7 L589.3,101.8 L605.3,196.6 L621.4,167.2 L637.4,226.0 L653.5,226.0 L669.5,209.7 L685.5,219.5 L701.6,209.7 L717.6,209.7 L733.7,127.9 L749.7,196.6 L765.7,226.0 L781.8,209.7 L797.8,209.7 L813.8,193.3 L829.9,190.0 L845.9,226.0 L862.0,226.0 L878.0,226.0 L878.0,226.0 L44.0,226.0 Z" fill="url(#fade)"/><path d="M44.0,226.0 L60.0,226.0 L76.1,226.0 L92.1,226.0 L108.2,226.0 L124.2,226.0 L140.2,226.0 L156.3,226.0 L172.3,226.0 L188.3,226.0 L204.4,226.0 L220.4,226.0 L236.5,226.0 L252.5,226.0 L268.5,226.0 L284.6,226.0 L300.6,216.2 L316.7,219.5 L332.7,226.0 L348.7,163.9 L364.8,206.4 L380.8,69.1 L396.8,56.0 L412.9,186.8 L428.9,203.1 L445.0,177.0 L461.0,167.2 L477.0,203.1 L493.1,222.7 L509.1,226.0 L525.2,219.5 L541.2,203.1 L557.2,216.2 L573.3,209.7 L589.3,101.8 L605.3,196.6 L621.4,167.2 L637.4,226.0 L653.5,226.0 L669.5,209.7 L685.5,219.5 L701.6,209.7 L717.6,209.7 L733.7,127.9 L749.7,196.6 L765.7,226.0 L781.8,209.7 L797.8,209.7 L813.8,193.3 L829.9,190.0 L845.9,226.0 L862.0,226.0 L878.0,226.0" fill="none" stroke="#d0d7de" stroke-width="2" stroke-linejoin="round" stroke-linecap="round"/><path class="trace" d="M44.0,226.0 L60.0,226.0 L76.1,226.0 L92.1,226.0 L108.2,226.0 L124.2,226.0 L140.2,226.0 L156.3,226.0 L172.3,226.0 L188.3,226.0 L204.4,226.0 L220.4,226.0 L236.5,226.0 L252.5,226.0 L268.5,226.0 L284.6,226.0 L300.6,216.2 L316.7,219.5 L332.7,226.0 L348.7,163.9 L364.8,206.4 L380.8,69.1 L396.8,56.0 L412.9,186.8 L428.9,203.1 L445.0,177.0 L461.0,167.2 L477.0,203.1 L493.1,222.7 L509.1,226.0 L525.2,219.5 L541.2,203.1 L557.2,216.2 L573.3,209.7 L589.3,101.8 L605.3,196.6 L621.4,167.2 L637.4,226.0 L653.5,226.0 L669.5,209.7 L685.5,219.5 L701.6,209.7 L717.6,209.7 L733.7,127.9 L749.7,196.6 L765.7,226.0 L781.8,209.7 L797.8,209.7 L813.8,193.3 L829.9,190.0 L845.9,226.0 L862.0,226.0 L878.0,226.0" fill="none" stroke="#0969da" stroke-width="2.4" stroke-linejoin="round" stroke-linecap="round" filter="url(#glow)"/><circle class="blip b0" cx="396.8" cy="56.0" r="5" fill="none" stroke="#8250df" stroke-width="1.6"/><circle class="blip b1" cx="380.8" cy="69.1" r="5" fill="none" stroke="#8250df" stroke-width="1.6"/><circle class="blip b2" cx="589.3" cy="101.8" r="5" fill="none" stroke="#8250df" stroke-width="1.6"/><circle class="blip b3" cx="733.7" cy="127.9" r="5" fill="none" stroke="#8250df" stroke-width="1.6"/><g class="head"><circle class="halo" r="6" fill="none" stroke="#8250df" stroke-width="1.4"/><circle class="pulse" r="4.5" fill="#8250df" filter="url(#glow)"/></g><text x="44.0" y="248" fill="#6e7781" font-size="11" text-anchor="middle">Sep</text><text x="60.0" y="248" fill="#6e7781" font-size="11" text-anchor="middle">Oct</text><text x="124.2" y="248" fill="#6e7781" font-size="11" text-anchor="middle">Nov</text><text x="204.4" y="248" fill="#6e7781" font-size="11" text-anchor="middle">Dec</text><text x="268.5" y="248" fill="#6e7781" font-size="11" text-anchor="middle">Jan</text><text x="332.7" y="248" fill="#6e7781" font-size="11" text-anchor="middle">Feb</text><text x="396.8" y="248" fill="#6e7781" font-size="11" text-anchor="middle">Mar</text><text x="477.0" y="248" fill="#6e7781" font-size="11" text-anchor="middle">Apr</text><text x="541.2" y="248" fill="#6e7781" font-size="11" text-anchor="middle">May</text><text x="621.4" y="248" fill="#6e7781" font-size="11" text-anchor="middle">Jun</text><text x="685.5" y="248" fill="#6e7781" font-size="11" text-anchor="middle">Jul</text><text x="749.7" y="248" fill="#6e7781" font-size="11" text-anchor="middle">Aug</text><text x="829.9" y="248" fill="#6e7781" font-size="11" text-anchor="middle">Sep</text><text x="36" y="60.0" fill="#6e7781" font-size="11" text-anchor="end">52</text><text x="36" y="230.0" fill="#6e7781" font-size="11" text-anchor="end">0</text></svg>